<?xml version="1.0" encoding="UTF-8"?>
<svg xmlns="http://www.w3.org/2000/svg" xmlns:xlink="http://www.w3.org/1999/xlink" viewBox="0 0 64 64" width="64px" height="64px">
<g id="surface20033396">
<path style=" stroke:none;fill-rule:nonzero;fill:rgb(92.54902%,52.156866%,12.941177%);fill-opacity:1;" d="M 12.238281 24 C 11.519531 24 10.980469 24.4375 10.800781 25.078125 L 7.320312 38 L 9.78125 37.980469 C 10.460938 37.980469 11.019531 37.542969 11.199219 36.921875 L 13.78125 27.421875 L 15.761719 27.421875 C 16.601562 27.421875 17.382812 27.976562 17.601562 28.898438 C 17.839844 29.976562 17 31.140625 15.761719 31.140625 L 14.738281 31.140625 C 14.039062 31.140625 13.480469 31.597656 13.300781 32.199219 L 12.660156 34.558594 L 15.859375 34.558594 C 19.578125 34.558594 21.699219 30.976562 21.039062 28.078125 C 20.480469 25.617188 18.339844 24 15.941406 24 Z M 61.441406 24 C 60.941406 24 60.519531 24.320312 60.398438 24.78125 L 56.839844 38 C 58.898438 38 60.820312 36.617188 61.320312 34.558594 L 63.980469 24.820312 C 64.101562 24.398438 63.78125 24 63.320312 24 Z M 22.703125 28 L 22.378906 29.246094 C 22.152344 30.152344 22.796875 30.984375 23.722656 30.984375 L 29.148438 30.984375 C 29.527344 30.984375 29.375 31.382812 29.355469 31.476562 L 28.542969 34.464844 C 28.503906 34.597656 28.449219 34.957031 28.015625 34.957031 L 24.722656 34.957031 C 24.210938 34.957031 24.210938 34.21875 24.722656 34.21875 L 26.765625 34.21875 C 27.40625 34.21875 27.917969 33.785156 28.109375 33.199219 L 28.429688 31.96875 L 23.855469 31.96875 C 20.152344 31.96875 19.738281 37.960938 23.800781 37.960938 L 29.222656 37.980469 C 30.28125 37.980469 31.171875 37.300781 31.4375 36.296875 L 32.761719 31.441406 C 33.214844 29.644531 31.851562 28 30.074219 28 Z M 5.007812 28.019531 C 2.832031 28.019531 0.84375 29.339844 0.164062 31.875 C -0.667969 35.050781 1.753906 38 4.910156 38 L 6.082031 38 L 6.761719 35.542969 C 6.875 35.128906 6.550781 34.765625 6.15625 34.765625 L 5.078125 34.765625 C 2.753906 34.765625 2.734375 31.25 5.078125 31.25 L 6.839844 31.25 C 7.5 31.25 8.007812 30.835938 8.199219 30.230469 L 8.785156 28.019531 Z M 39.5625 28.019531 L 39.5625 28.035156 L 35.007812 28.035156 L 32.53125 37.222656 C 32.417969 37.636719 32.734375 38 33.132812 38 L 34.910156 38 C 35.363281 38 35.78125 37.71875 35.894531 37.265625 L 37.519531 31.273438 L 39.390625 31.273438 C 40.582031 31.273438 41.433594 32.367188 41.113281 33.464844 L 40.109375 37.207031 C 39.996094 37.621094 40.28125 38 40.714844 38 L 42.527344 38 C 42.960938 38 43.378906 37.714844 43.492188 37.261719 L 44.324219 34.160156 C 45.175781 31.042969 42.832031 28.019531 39.5625 28.019531 Z M 49.878906 28.023438 C 48.195312 28.023438 46.683594 29.15625 46.230469 30.800781 L 45.210938 34.542969 C 44.738281 36.207031 46.003906 38.003906 47.894531 38.003906 L 54.1875 38.003906 C 54.828125 38.003906 55.359375 37.566406 55.53125 36.980469 L 56.078125 35.015625 L 49.140625 35.015625 C 48.800781 35.015625 48.574219 34.691406 48.667969 34.390625 L 49.425781 31.574219 C 49.5 31.214844 49.765625 31.007812 50.160156 31.007812 L 53.261719 31.007812 C 53.507812 31.007812 53.695312 31.234375 53.640625 31.5 L 53.5625 31.746094 C 53.503906 31.933594 53.394531 32.011719 53.203125 32.011719 L 51.160156 32.011719 C 50.5 32.011719 49.972656 32.445312 49.820312 33.03125 L 49.480469 34.257812 L 54.527344 34.257812 C 55.53125 34.257812 56.453125 33.632812 56.71875 32.59375 L 57.023438 31.476562 C 57.496094 29.679688 56.152344 28.019531 54.359375 28.023438 Z M 49.878906 28.023438 "/>
</g>
</svg>
